<svg width="20" height="20" viewBox="0 0 20 20" fill="none" xmlns="http://www.w3.org/2000/svg">
<g id="administrator_line_icon_236151 1" clip-path="url(#clip0_7_28)">
<path id="Vector" d="M8.15545 8.22778C7.41244 8.22778 6.68612 8.00738 6.0684 7.59447C5.45069 7.18156 4.96933 6.59469 4.68525 5.90813C4.40116 5.22157 4.32711 4.46617 4.47247 3.73751C4.61783 3.00886 4.97607 2.33969 5.50185 1.81469C6.02763 1.28969 6.69732 0.932443 7.42619 0.788162C8.15506 0.643881 8.91036 0.719047 9.5965 1.00415C10.2826 1.28925 10.8688 1.77147 11.2808 2.3898C11.6928 3.00813 11.9121 3.73477 11.911 4.47779C11.9081 5.47241 11.5113 6.42537 10.8075 7.12815C10.1036 7.83094 9.15008 8.22632 8.15545 8.22778ZM8.15545 1.83334C7.63243 1.83334 7.12116 1.98844 6.68628 2.27901C6.2514 2.56959 5.91246 2.98259 5.71231 3.4658C5.51216 3.94901 5.45979 4.48072 5.56182 4.99369C5.66386 5.50666 5.91572 5.97786 6.28555 6.34769C6.65538 6.71752 7.12658 6.96938 7.63955 7.07142C8.15252 7.17345 8.68423 7.12108 9.16744 6.92093C9.65065 6.72078 10.0637 6.38184 10.3542 5.94696C10.6448 5.51208 10.7999 5.00081 10.7999 4.47779C10.7999 3.77644 10.5213 3.10381 10.0254 2.60788C9.52943 2.11195 8.8568 1.83334 8.15545 1.83334Z" fill="white"/>
<path id="Vector_2" d="M9.12219 17.6C9.00077 17.4785 8.90711 17.3322 8.84765 17.171C8.78819 17.0099 8.76434 16.8378 8.77775 16.6666H2.22219V13.4555C3.00992 12.615 3.96537 11.9492 5.02669 11.5013C6.08801 11.0535 7.23156 10.8334 8.38331 10.8555H8.78331C8.7578 10.6692 8.77562 10.4796 8.83536 10.3014C8.8951 10.1231 8.99516 9.96102 9.12775 9.82774L9.19442 9.76662C8.9333 9.76662 8.63886 9.73329 8.38331 9.73329C7.02797 9.70111 5.68243 9.97051 4.44396 10.522C3.20549 11.0735 2.10504 11.8933 1.2222 12.9222C1.15007 13.0183 1.11108 13.1353 1.11108 13.2555V16.6666C1.11108 16.9613 1.22815 17.2439 1.43652 17.4523C1.64489 17.6607 1.92751 17.7777 2.22219 17.7777H9.27775L9.12219 17.6Z" fill="white"/>
<path id="Vector_3" d="M14.9277 9.05004C14.9552 9.04435 14.9836 9.04435 15.0111 9.05004C14.9835 9.04504 14.9553 9.04504 14.9277 9.05004Z" fill="white"/>
<path id="Vector_4" d="M18.7111 12.9555L17.6 12.6166C17.5205 12.3449 17.4125 12.0823 17.2777 11.8333L17.8333 10.8C17.8514 10.7586 17.8557 10.7126 17.8457 10.6686C17.8357 10.6246 17.8119 10.585 17.7777 10.5555L16.9722 9.74997C16.9417 9.71699 16.901 9.69522 16.8567 9.68817C16.8124 9.68112 16.7669 9.68919 16.7277 9.71108L15.7055 10.2666C15.4538 10.1251 15.1874 10.0115 14.9111 9.92775L14.5722 8.81664C14.5578 8.77574 14.5305 8.74062 14.4944 8.71657C14.4584 8.69253 14.4155 8.68085 14.3722 8.6833H13.2333C13.1895 8.6828 13.1468 8.69665 13.1117 8.72274C13.0766 8.74883 13.051 8.78572 13.0388 8.82775L12.7 9.93886C12.4217 10.0198 12.1534 10.1316 11.9 10.2722L10.8888 9.71664C10.8505 9.69516 10.806 9.68732 10.7626 9.69438C10.7192 9.70144 10.6795 9.723 10.65 9.75553L9.82773 10.5555C9.79725 10.5876 9.77762 10.6285 9.77164 10.6724C9.76566 10.7162 9.77362 10.7609 9.7944 10.8L10.35 11.8111C10.203 12.0615 10.0856 12.3281 9.99995 12.6055L8.88884 12.9389C8.84681 12.951 8.80993 12.9766 8.78384 13.0117C8.75775 13.0469 8.74389 13.0896 8.7444 13.1333V14.2722C8.74768 14.3123 8.76334 14.3504 8.78921 14.3813C8.81509 14.4121 8.8499 14.4342 8.88884 14.4444L9.99995 14.7833C10.0821 15.0558 10.1938 15.3185 10.3333 15.5666L9.77773 16.6278C9.75653 16.6658 9.74832 16.7097 9.75433 16.7528C9.76035 16.7959 9.78027 16.8359 9.81106 16.8666L10.6166 17.6722C10.6481 17.7036 10.6887 17.7242 10.7325 17.7312C10.7764 17.7382 10.8214 17.7312 10.8611 17.7111L11.9 17.1555C12.1472 17.2885 12.4079 17.3947 12.6777 17.4722L13.0111 18.5833C13.0247 18.6244 13.0507 18.6603 13.0855 18.6862C13.1203 18.712 13.1622 18.7265 13.2055 18.7277H14.3444C14.3879 18.7274 14.4302 18.7132 14.4652 18.6872C14.5001 18.6613 14.5259 18.6249 14.5388 18.5833L14.8777 17.4444C15.144 17.3668 15.401 17.2606 15.6444 17.1278L16.6944 17.6833C16.733 17.7038 16.7773 17.7111 16.8204 17.7041C16.8635 17.6971 16.9032 17.6761 16.9333 17.6444L17.7777 16.8889C17.8004 16.8563 17.8126 16.8175 17.8126 16.7778C17.8126 16.738 17.8004 16.6992 17.7777 16.6666L17.2222 15.6222C17.357 15.3771 17.4651 15.1182 17.5444 14.85L18.6555 14.5111C18.6975 14.4989 18.7344 14.4733 18.7605 14.4382C18.7866 14.4031 18.8005 14.3604 18.8 14.3166V13.15C18.8051 13.1125 18.7994 13.0743 18.7837 13.0399C18.7679 13.0055 18.7428 12.9762 18.7111 12.9555ZM13.8055 15.5555C13.438 15.5566 13.0785 15.4486 12.7725 15.2451C12.4665 15.0417 12.2278 14.7519 12.0867 14.4126C11.9456 14.0733 11.9084 13.6998 11.9798 13.3393C12.0512 12.9789 12.228 12.6477 12.4879 12.3879C12.7477 12.1281 13.0789 11.9512 13.4393 11.8798C13.7998 11.8084 14.1733 11.8456 14.5126 11.9867C14.8519 12.1279 15.1416 12.3666 15.3451 12.6726C15.5486 12.9785 15.6566 13.3381 15.6555 13.7055C15.654 14.1957 15.4587 14.6654 15.112 15.0121C14.7654 15.3587 14.2957 15.5541 13.8055 15.5555Z" fill="white"/>
</g>
<defs>
<clipPath id="clip0_7_28">
<rect width="20" height="20" fill="white"/>
</clipPath>
</defs>
</svg>
