<svg width="21" height="18" viewBox="0 0 21 18" fill="none" xmlns="http://www.w3.org/2000/svg">
<mask id="path-1-inside-1_22_170" fill="white">
<path fill-rule="evenodd" clip-rule="evenodd" d="M2.4239 1.72615C0.401344 3.7487 0.401343 7.02791 2.4239 9.05047L3.1963 9.82287L3.19503 9.82415L10.5194 17.1485L18.5761 9.09172C20.5987 7.06916 20.5987 3.78995 18.5761 1.76739C16.5536 -0.255162 13.2743 -0.255163 11.2518 1.76739L10.5206 2.49855L9.74822 1.72614C7.72567 -0.296411 4.44646 -0.29641 2.4239 1.72615Z"/>
</mask>
<path fill-rule="evenodd" clip-rule="evenodd" d="M2.4239 1.72615C0.401344 3.7487 0.401343 7.02791 2.4239 9.05047L3.1963 9.82287L3.19503 9.82415L10.5194 17.1485L18.5761 9.09172C20.5987 7.06916 20.5987 3.78995 18.5761 1.76739C16.5536 -0.255162 13.2743 -0.255163 11.2518 1.76739L10.5206 2.49855L9.74822 1.72614C7.72567 -0.296411 4.44646 -0.29641 2.4239 1.72615Z" fill="none"/>
<path d="M2.4239 9.05047L1.71679 9.75758L1.71679 9.75758L2.4239 9.05047ZM2.4239 1.72615L1.71679 1.01904L2.4239 1.72615ZM3.1963 9.82287L3.90341 10.53L4.61052 9.82287L3.90341 9.11577L3.1963 9.82287ZM3.19503 9.82415L2.48792 9.11704L1.78081 9.82415L2.48792 10.5313L3.19503 9.82415ZM10.5194 17.1485L9.81224 17.8556L10.5194 18.5627L11.2265 17.8556L10.5194 17.1485ZM18.5761 9.09172L17.869 8.38461L17.869 8.38461L18.5761 9.09172ZM18.5761 1.76739L19.2832 1.06029L19.2832 1.06029L18.5761 1.76739ZM11.2518 1.76739L10.5447 1.06029L10.5447 1.06029L11.2518 1.76739ZM10.5206 2.49855L9.81352 3.20566L10.5206 3.91276L11.2277 3.20566L10.5206 2.49855ZM9.74822 1.72614L9.04112 2.43325L9.04112 2.43325L9.74822 1.72614ZM3.13101 8.34336C1.49897 6.71133 1.49897 4.06528 3.13101 2.43325L1.71679 1.01904C-0.696287 3.43212 -0.696288 7.3445 1.71679 9.75758L3.13101 8.34336ZM3.90341 9.11577L3.13101 8.34336L1.71679 9.75758L2.4892 10.53L3.90341 9.11577ZM3.90213 10.5313L3.90341 10.53L2.4892 9.11577L2.48792 9.11704L3.90213 10.5313ZM11.2265 16.4414L3.90213 9.11704L2.48792 10.5313L9.81224 17.8556L11.2265 16.4414ZM17.869 8.38461L9.81224 16.4414L11.2265 17.8556L19.2832 9.79882L17.869 8.38461ZM17.869 2.4745C19.501 4.10653 19.501 6.75258 17.869 8.38461L19.2832 9.79882C21.6963 7.38574 21.6963 3.47337 19.2832 1.06029L17.869 2.4745ZM11.9589 2.4745C13.5909 0.842468 16.237 0.842468 17.869 2.4745L19.2832 1.06029C16.8701 -1.35279 12.9578 -1.35279 10.5447 1.06029L11.9589 2.4745ZM11.2277 3.20566L11.9589 2.4745L10.5447 1.06029L9.81352 1.79144L11.2277 3.20566ZM9.04112 2.43325L9.81352 3.20566L11.2277 1.79144L10.4553 1.01904L9.04112 2.43325ZM3.13101 2.43325C4.76304 0.801221 7.40908 0.80122 9.04112 2.43325L10.4553 1.01904C8.04225 -1.39404 4.12987 -1.39404 1.71679 1.01904L3.13101 2.43325Z" fill="black" mask="url(#path-1-inside-1_22_170)"/>
</svg>
