<svg width="18" height="18" viewBox="0 0 18 18" fill="none" xmlns="http://www.w3.org/2000/svg">
<g id="more_icon_143086 1">
<path id="Vector" fill-rule="evenodd" clip-rule="evenodd" d="M2.21422 7.07132C3.27934 7.07132 4.14279 7.93477 4.14279 8.9999C4.14279 10.065 3.27934 10.9285 2.21422 10.9285C1.1491 10.9285 0.285645 10.065 0.285645 8.9999C0.285645 7.93477 1.1491 7.07132 2.21422 7.07132ZM7.99993 7.07132C9.06505 7.07132 9.9285 7.93477 9.9285 8.9999C9.9285 10.065 9.06505 10.9285 7.99993 10.9285C6.93481 10.9285 6.07136 10.065 6.07136 8.9999C6.07136 7.93477 6.93481 7.07132 7.99993 7.07132ZM13.7856 7.07132C14.8508 7.07132 15.7142 7.93477 15.7142 8.9999C15.7142 10.065 14.8508 10.9285 13.7856 10.9285C12.7205 10.9285 11.8571 10.065 11.8571 8.9999C11.8571 7.93477 12.7205 7.07132 13.7856 7.07132Z" fill="white"/>
</g>
</svg>
