<svg width="150" height="122" viewBox="0 0 150 122" fill="none" xmlns="http://www.w3.org/2000/svg">
<g clip-path="url(#clip0_1670_33)">
<path d="M68.6 96.8C39.4 96.8 16.1 79.5 5 53.4C16.2 27.3 39.5 10 68.6 10C97.7 10 121.1 27.3 132.3 53.4C121.1 79.5 97.7 96.8 68.6 96.8ZM68.6 86.4C91.7 86.4 111.6 72.9 120.9 53.4C111.6 33.9 91.7 20.4 68.6 20.4C45.6 20.4 25.7 33.9 16.4 53.4C25.6 72.9 45.5 86.4 68.6 86.4ZM44.4 53.4C44.4 40 55.2 29.2 68.5 29.2C81.9 29.2 92.7 40.1 92.7 53.4C92.7 66.8 81.8 77.6 68.5 77.6C55.2 77.6 44.4 66.7 44.4 53.4ZM45.5443 46C45.5443 50.2 69.1 37 73.4 37C77.5 37 73.4 57.6 73.4 53.4C73.4 49.3 67.8 70.5823 63.6 70.5823C59.4 70.5823 45.5443 41.8 45.5443 46Z" fill="#636363"/>
</g>
<defs>
<clipPath id="clip0_1670_33">
<rect width="150" height="122" fill="white"/>
</clipPath>
</defs>
</svg>
