<svg width="150" height="122" viewBox="0 0 150 122" fill="none" xmlns="http://www.w3.org/2000/svg">
<g clip-path="url(#clip0_1670_33)">
<path d="M65.7 97.3C36.5 97.3 13.2 80 2.09998 53.9C13.3 27.8 36.6 10.5 65.7 10.5C94.8 10.5 118.2 27.8 129.4 53.9C118.2 80 94.8 97.3 65.7 97.3ZM65.7 86.9C88.8 86.9 108.7 73.4 118 53.9C108.7 34.4 88.8 20.9 65.7 20.9C42.7 20.9 22.8 34.4 13.5 53.9C22.7 73.4 42.6 86.9 65.7 86.9ZM41.5 53.9C41.5 40.5 52.3 29.7 65.6 29.7C79 29.7 89.8 40.6 89.8 53.9C89.8 67.3 78.9 78.1 65.6 78.1C52.3 78.1 41.5 67.2 41.5 53.9ZM80.5 58.5C80.5 62.7 66.2 37.5 70.5 37.5C74.6 37.5 80.5 66.7 80.5 62.5C80.5 58.4 78.9 58.5 74.7 58.5C70.5 58.5 80.5 54.3 80.5 58.5Z" fill="#636363"/>
<path d="M9 7.5L127.5 102.5" stroke="#636363" stroke-width="9" stroke-linecap="round"/>
</g>
<defs>
<clipPath id="clip0_1670_33">
<rect width="150" height="122" fill="white"/>
</clipPath>
</defs>
</svg>
